<svg width="20" height="20" viewBox="0 0 20 20" fill="none" xmlns="http://www.w3.org/2000/svg">
<path d="M1.6665 9.99984H6.354M6.1665 4.1665H3.33317C2.5475 4.1665 2.15466 4.1665 1.91058 4.41058C1.6665 4.65466 1.6665 5.0475 1.6665 5.83317V14.1665C1.6665 14.9522 1.6665 15.345 1.91058 15.5891C2.15466 15.8332 2.5475 15.8332 3.33317 15.8332H6.1665C7.82336 15.8332 9.1665 14.5273 9.1665 12.9165C9.1665 11.3057 7.82336 9.99984 6.1665 9.99984C7.82336 9.99984 9.1665 8.694 9.1665 7.08317C9.1665 5.47234 7.82336 4.1665 6.1665 4.1665Z" stroke="white" stroke-width="1.5" stroke-linecap="round" stroke-linejoin="round"/>
<path d="M16.6665 5.8335H13.3332M11.6665 11.6668H18.3332C18.3332 9.96574 16.8408 8.3335 14.9998 8.3335C13.1589 8.3335 11.6665 9.96574 11.6665 11.6668ZM11.6665 11.6668V12.5002C11.6665 14.3411 13.1589 15.8335 14.9998 15.8335C16.2336 15.8335 17.3109 15.1632 17.8872 14.1668" stroke="white" stroke-width="1.5" stroke-linecap="round" stroke-linejoin="round"/>
</svg>
